REM DIRINDEX 1\2\3,1\2\4,1\2\5,1\2\6
REM DIRNAME folder01,folder02,folder03,folder04,folder05,folder06
TITLE ""
FILE "019 019.mp3" MP3
  TRACK 01 AUDIO
    TITLE "0:"
    INDEX 01 00:00:00
  TRACK 02 AUDIO
    TITLE "3:cjc157_0684"
    INDEX 01 00:00:07
  TRACK 03 AUDIO
    TITLE "0:"
    INDEX 01 00:01:48
  TRACK 04 AUDIO
    TITLE "4:cjc157_0685"
    INDEX 01 00:02:18
  TRACK 05 AUDIO
    TITLE "0:"
    INDEX 01 00:03:35
  TRACK 06 AUDIO
    TITLE "5:cjc157_0686"
    INDEX 01 00:04:03
  TRACK 07 AUDIO
    TITLE "0:"
    INDEX 01 00:06:30
  TRACK 08 AUDIO
    TITLE "5:cjc157_0687"
    INDEX 01 00:07:00
  TRACK 09 AUDIO
    TITLE "0:"
    INDEX 01 00:09:44
  TRACK 10 AUDIO
    TITLE "3:cjc157_0688"
    INDEX 01 00:10:14
  TRACK 11 AUDIO
    TITLE "0:"
    INDEX 01 00:11:42
  TRACK 12 AUDIO
    TITLE "4:cjc157_0689"
    INDEX 01 00:12:12
  TRACK 13 AUDIO
    TITLE "0:"
    INDEX 01 00:13:16
  TRACK 14 AUDIO
    TITLE "5:cjc157_0690"
    INDEX 01 00:13:63
  TRACK 15 AUDIO
    TITLE "0:"
    INDEX 01 00:15:56
  TRACK 16 AUDIO
    TITLE "5:cjc157_0691"
    INDEX 01 00:16:32
  TRACK 17 AUDIO
    TITLE "0:"
    INDEX 01 00:18:48
  TRACK 18 AUDIO
    TITLE "3:cjc157_0692"
    INDEX 01 00:19:18
  TRACK 19 AUDIO
    TITLE "0:"
    INDEX 01 00:20:67
  TRACK 20 AUDIO
    TITLE "4:cjc157_0693"
    INDEX 01 00:21:35
  TRACK 21 AUDIO
    TITLE "0:"
    INDEX 01 00:22:50
  TRACK 22 AUDIO
    TITLE "5:cjc157_0694"
    INDEX 01 00:23:14
  TRACK 23 AUDIO
    TITLE "0:"
    INDEX 01 00:25:72
  TRACK 24 AUDIO
    TITLE "3:cjc157_0695"
    INDEX 01 00:26:42
  TRACK 25 AUDIO
    TITLE "0:"
    INDEX 01 00:28:00
  TRACK 26 AUDIO
    TITLE "4:cjc157_0696"
    INDEX 01 00:28:49
  TRACK 27 AUDIO
    TITLE "0:"
    INDEX 01 00:29:44
  TRACK 28 AUDIO
    TITLE "5:cjc157_0697"
    INDEX 01 00:30:16
  TRACK 29 AUDIO
    TITLE "0:"
    INDEX 01 00:32:39
  TRACK 30 AUDIO
    TITLE "5:cjc157_0698"
    INDEX 01 00:33:15
  TRACK 31 AUDIO
    TITLE "0:"
    INDEX 01 00:35:33
  TRACK 32 AUDIO
    TITLE "5:cjc157_0699"
    INDEX 01 00:36:03
  TRACK 33 AUDIO
    TITLE "0:"
    INDEX 01 00:38:08
  TRACK 34 AUDIO
    TITLE "5:cjc157_0700"
    INDEX 01 00:38:53
  TRACK 35 AUDIO
    TITLE "0:"
    INDEX 01 00:41:10
  TRACK 36 AUDIO
    TITLE "3:cjc157_0701"
    INDEX 01 00:41:63
  TRACK 37 AUDIO
    TITLE "0:"
    INDEX 01 00:42:74
  TRACK 38 AUDIO
    TITLE "4:cjc157_0702"
    INDEX 01 00:43:44
  TRACK 39 AUDIO
    TITLE "0:"
    INDEX 01 00:44:60
  TRACK 40 AUDIO
    TITLE "5:cjc157_0703"
    INDEX 01 00:45:26
  TRACK 41 AUDIO
    TITLE "0:"
    INDEX 01 00:47:58
  TRACK 42 AUDIO
    TITLE "5:cjc157_0704"
    INDEX 01 00:48:34
  TRACK 43 AUDIO
    TITLE "0:"
    INDEX 01 00:50:35
  TRACK 44 AUDIO
    TITLE "3:cjc157_0705"
    INDEX 01 00:51:11
  TRACK 45 AUDIO
    TITLE "0:"
    INDEX 01 00:52:12
  TRACK 46 AUDIO
    TITLE "4:cjc157_0706"
    INDEX 01 00:52:59
  TRACK 47 AUDIO
    TITLE "0:"
    INDEX 01 00:53:58
  TRACK 48 AUDIO
    TITLE "5:cjc157_0707"
    INDEX 01 00:54:27
  TRACK 49 AUDIO
    TITLE "0:"
    INDEX 01 00:57:25
  TRACK 50 AUDIO
    TITLE "5:cjc157_0708"
    INDEX 01 00:57:70
  TRACK 51 AUDIO
    TITLE "0:"
    INDEX 01 00:59:51
  TRACK 52 AUDIO
    TITLE "3:cjc157_0709"
    INDEX 01 01:00:23
  TRACK 53 AUDIO
    TITLE "0:"
    INDEX 01 01:01:25
  TRACK 54 AUDIO
    TITLE "4:cjc157_0710"
    INDEX 01 01:01:74
  TRACK 55 AUDIO
    TITLE "0:"
    INDEX 01 01:03:08
  TRACK 56 AUDIO
    TITLE "5:cjc157_0711"
    INDEX 01 01:03:53
  TRACK 57 AUDIO
    TITLE "0:"
    INDEX 01 01:06:28
  TRACK 58 AUDIO
    TITLE "5:cjc157_0712"
    INDEX 01 01:06:73
  TRACK 59 AUDIO
    TITLE "0:"
    INDEX 01 01:08:64
  TRACK 60 AUDIO
    TITLE "3:cjc157_0713"
    INDEX 01 01:09:34
  TRACK 61 AUDIO
    TITLE "0:"
    INDEX 01 01:10:69
  TRACK 62 AUDIO
    TITLE "4:cjc157_0714"
    INDEX 01 01:11:43
  TRACK 63 AUDIO
    TITLE "0:"
    INDEX 01 01:12:44
  TRACK 64 AUDIO
    TITLE "5:cjc157_0715"
    INDEX 01 01:13:22
  TRACK 65 AUDIO
    TITLE "0:"
    INDEX 01 01:17:12
  TRACK 66 AUDIO
    TITLE "5:cjc157_0716"
    INDEX 01 01:17:55
  TRACK 67 AUDIO
    TITLE "0:"
    INDEX 01 01:19:23
  TRACK 68 AUDIO
    TITLE "3:cjc157_0717"
    INDEX 01 01:19:68
  TRACK 69 AUDIO
    TITLE "0:"
    INDEX 01 01:21:20
  TRACK 70 AUDIO
    TITLE "4:cjc157_0718"
    INDEX 01 01:21:65
  TRACK 71 AUDIO
    TITLE "0:"
    INDEX 01 01:24:65
  TRACK 72 AUDIO
    TITLE "5:cjc157_0719"
    INDEX 01 01:25:37
  TRACK 73 AUDIO
    TITLE "0:"
    INDEX 01 01:27:36
  TRACK 74 AUDIO
    TITLE "5:cjc157_0720"
    INDEX 01 01:28:08
  TRACK 75 AUDIO
    TITLE "0:"
    INDEX 01 01:30:09
  TRACK 76 AUDIO
    TITLE "3:cjc157_0721"
    INDEX 01 01:30:54
  TRACK 77 AUDIO
    TITLE "0:"
    INDEX 01 01:32:00
  TRACK 78 AUDIO
    TITLE "4:cjc157_0722"
    INDEX 01 01:32:49
  TRACK 79 AUDIO
    TITLE "0:"
    INDEX 01 01:35:51
  TRACK 80 AUDIO
    TITLE "5:cjc157_0723"
    INDEX 01 01:36:21
  TRACK 81 AUDIO
    TITLE "0:"
    INDEX 01 01:39:39
  TRACK 82 AUDIO
    TITLE "5:cjc157_0724"
    INDEX 01 01:40:07
  TRACK 83 AUDIO
    TITLE "0:"
    INDEX 01 01:43:35
  TRACK 84 AUDIO
    TITLE "5:cjc157_0725"
    INDEX 01 01:44:05
  TRACK 85 AUDIO
    TITLE "0:"
    INDEX 01 01:48:09
  TRACK 86 AUDIO
    TITLE "5:cjc157_0726"
    INDEX 01 01:48:54
  TRACK 87 AUDIO
    TITLE "0:"
    INDEX 01 01:51:05
